<svg width="20" height="20" viewBox="0 0 20 20" fill="none" xmlns="http://www.w3.org/2000/svg">
<path d="M17.81 7.09089C17.9142 7.37415 17.8263 7.68997 17.6016 7.89183L16.1919 9.17463C16.2277 9.44487 16.2472 9.72162 16.2472 10.0016C16.2472 10.2816 16.2277 10.5584 16.1919 10.8286L17.6016 12.1114C17.8263 12.3133 17.9142 12.6291 17.81 12.9123C17.6668 13.2998 17.4942 13.671 17.2956 14.0291L17.1426 14.2928C16.9277 14.651 16.6867 14.9896 16.423 15.3086C16.2309 15.5431 15.9119 15.6212 15.6253 15.53L13.8118 14.9538C13.3756 15.2891 12.8937 15.5691 12.3793 15.7807L11.9723 17.6398C11.9072 17.9361 11.6793 18.1705 11.3797 18.2194C10.9304 18.2943 10.4681 18.3333 9.99599 18.3333C9.52389 18.3333 9.06156 18.2943 8.61225 18.2194C8.31272 18.1705 8.08481 17.9361 8.01969 17.6398L7.61271 15.7807C7.09829 15.5691 6.61642 15.2891 6.18014 14.9538L4.36989 15.5333C4.08338 15.6245 3.7643 15.5431 3.57221 15.3119C3.30848 14.9928 3.06755 14.6542 2.85267 14.2961L2.69964 14.0324C2.50103 13.6742 2.32848 13.303 2.18522 12.9156C2.08103 12.6323 2.16894 12.3165 2.39359 12.1147L3.80337 10.8319C3.76756 10.5584 3.74802 10.2816 3.74802 10.0016C3.74802 9.72162 3.76756 9.44487 3.80337 9.17463L2.39359 7.89183C2.16894 7.68997 2.08103 7.37415 2.18522 7.09089C2.32848 6.70345 2.50103 6.33228 2.69964 5.97414L2.85267 5.71042C3.06755 5.35227 3.30848 5.01366 3.57221 4.69459C3.7643 4.46017 4.08338 4.38203 4.36989 4.47319L6.18339 5.04948C6.61968 4.71413 7.10154 4.43412 7.61597 4.22249L8.02295 2.36341C8.08806 2.06713 8.31597 1.8327 8.61551 1.78387C9.06482 1.70573 9.52715 1.66666 9.99924 1.66666C10.4713 1.66666 10.9337 1.70573 11.383 1.78061C11.6825 1.82945 11.9104 2.06387 11.9755 2.36015L12.3825 4.21924C12.8969 4.43087 13.3788 4.71087 13.8151 5.04622L15.6286 4.46994C15.9151 4.37877 16.2342 4.46017 16.4263 4.69134C16.69 5.01041 16.9309 5.34902 17.1458 5.70716L17.2988 5.97088C17.4975 6.32903 17.67 6.70019 17.8133 7.08764L17.81 7.09089ZM9.99924 12.6063C11.4383 12.6063 12.6039 11.4407 12.6039 10.0016C12.6039 8.56254 11.4383 7.39694 9.99924 7.39694C8.56016 7.39694 7.39457 8.56254 7.39457 10.0016C7.39457 11.4407 8.56016 12.6063 9.99924 12.6063Z" fill="#637381"/>
</svg>
