<svg width="20" height="20" viewBox="0 0 20 20" fill="none" xmlns="http://www.w3.org/2000/svg">
<path d="M1.66666 4.79167C1.66666 4.21549 2.13215 3.75 2.70832 3.75H15.2083C15.7845 3.75 16.25 4.21549 16.25 4.79167C16.25 5.36784 15.7845 5.83333 15.2083 5.83333H2.70832C2.13215 5.83333 1.66666 5.36784 1.66666 4.79167ZM3.74999 10C3.74999 9.42383 4.21548 8.95833 4.79166 8.95833H17.2917C17.8678 8.95833 18.3333 9.42383 18.3333 10C18.3333 10.5762 17.8678 11.0417 17.2917 11.0417H4.79166C4.21548 11.0417 3.74999 10.5762 3.74999 10ZM16.25 15.2083C16.25 15.7845 15.7845 16.25 15.2083 16.25H2.70832C2.13215 16.25 1.66666 15.7845 1.66666 15.2083C1.66666 14.6322 2.13215 14.1667 2.70832 14.1667H15.2083C15.7845 14.1667 16.25 14.6322 16.25 15.2083Z" fill="#637381"/>
</svg>
