<svg width="20" height="20" viewBox="0 0 20 20" fill="none" xmlns="http://www.w3.org/2000/svg">
<path d="M1.66667 3.20312C1.66667 2.81348 1.97892 2.5 2.36705 2.5H3.69486C4.33688 2.5 4.90594 2.875 5.1715 3.4375H17.1656C17.9331 3.4375 18.4934 4.16992 18.292 4.91406L17.0955 9.37598C16.8475 10.2959 16.0158 10.9375 15.0673 10.9375H6.64815L6.80573 11.7725C6.86994 12.1035 7.15884 12.3438 7.49444 12.3438H15.9078C16.2959 12.3438 16.6082 12.6572 16.6082 13.0469C16.6082 13.4365 16.2959 13.75 15.9078 13.75H7.49444C6.48472 13.75 5.618 13.0293 5.43123 12.0361L3.92541 4.09668C3.90498 3.98535 3.80868 3.90625 3.69486 3.90625H2.36705C1.97892 3.90625 1.66667 3.59277 1.66667 3.20312ZM5.40205 16.0938C5.40205 15.9091 5.43828 15.7262 5.50868 15.5556C5.57907 15.385 5.68225 15.23 5.81232 15.0994C5.9424 14.9688 6.09682 14.8652 6.26677 14.7945C6.43671 14.7239 6.61886 14.6875 6.80282 14.6875C6.98677 14.6875 7.16892 14.7239 7.33887 14.7945C7.50882 14.8652 7.66323 14.9688 7.79331 15.0994C7.92338 15.23 8.02656 15.385 8.09696 15.5556C8.16735 15.7262 8.20358 15.9091 8.20358 16.0938C8.20358 16.2784 8.16735 16.4613 8.09696 16.6319C8.02656 16.8025 7.92338 16.9575 7.79331 17.0881C7.66323 17.2187 7.50882 17.3223 7.33887 17.393C7.16892 17.4636 6.98677 17.5 6.80282 17.5C6.61886 17.5 6.43671 17.4636 6.26677 17.393C6.09682 17.3223 5.9424 17.2187 5.81232 17.0881C5.68225 16.9575 5.57907 16.8025 5.50868 16.6319C5.43828 16.4613 5.40205 16.2784 5.40205 16.0938ZM15.2074 14.6875C15.5789 14.6875 15.9352 14.8357 16.1979 15.0994C16.4606 15.3631 16.6082 15.7208 16.6082 16.0938C16.6082 16.4667 16.4606 16.8244 16.1979 17.0881C15.9352 17.3518 15.5789 17.5 15.2074 17.5C14.8359 17.5 14.4796 17.3518 14.2169 17.0881C13.9542 16.8244 13.8067 16.4667 13.8067 16.0938C13.8067 15.7208 13.9542 15.3631 14.2169 15.0994C14.4796 14.8357 14.8359 14.6875 15.2074 14.6875ZM9.0207 7.1875C9.0207 7.50977 9.28334 7.77344 9.60435 7.77344H10.8884V9.0625C10.8884 9.38477 11.151 9.64844 11.472 9.64844C11.793 9.64844 12.0557 9.38477 12.0557 9.0625V7.77344H13.3397C13.6607 7.77344 13.9234 7.50977 13.9234 7.1875C13.9234 6.86523 13.6607 6.60156 13.3397 6.60156H12.0557V5.3125C12.0557 4.99023 11.793 4.72656 11.472 4.72656C11.151 4.72656 10.8884 4.99023 10.8884 5.3125V6.60156H9.60435C9.28334 6.60156 9.0207 6.86523 9.0207 7.1875Z" fill="white"/>
</svg>
