<svg width="18" height="16" viewBox="0 0 18 16" fill="none" xmlns="http://www.w3.org/2000/svg">
<path d="M0.666687 6.91174C0.666687 6.44222 0.861451 5.99704 1.20924 5.68055L7.86992 0.613207C8.50986 0.0289146 9.48716 0.0289146 10.1271 0.613207L16.7908 5.68054C17.1351 5.99703 17.3334 6.44221 17.3334 6.91173L15.6779 14.7104C15.3343 15.4524 14.9301 15.8234 14.0085 15.8234H3.98855C3.0669 15.8234 2.72102 15.8234 2.31914 14.7104L0.666687 6.91174ZM7.32736 10.6296V12.8555C7.32736 13.3181 7.6995 13.5975 8.16207 13.5975H9.83148C10.294 13.5975 10.6662 13.3181 10.6662 12.8555V10.6296C10.6662 10.1671 10.294 9.88769 9.83148 9.88769H8.16207C7.6995 9.88769 7.32736 10.1671 7.32736 10.6296Z" fill="#FFC831"/>
</svg>
