<svg width="20" height="20" viewBox="0 0 20 20" fill="none" xmlns="http://www.w3.org/2000/svg">
<path d="M10 3.22916C6.25979 3.22916 3.22919 6.25976 3.22919 9.99999V11.3021C3.22919 11.735 2.88088 12.0833 2.44794 12.0833C2.01499 12.0833 1.66669 11.735 1.66669 11.3021V9.99999C1.66669 5.39713 5.39716 1.66666 10 1.66666C14.6029 1.66666 18.3334 5.39713 18.3334 9.99999V14.6907C18.3334 16.2728 17.0508 17.5553 15.4655 17.5553L11.875 17.5521C11.6048 18.0176 11.1003 18.3333 10.5209 18.3333H9.47919C8.61656 18.3333 7.91669 17.6335 7.91669 16.7708C7.91669 15.9082 8.61656 15.2083 9.47919 15.2083H10.5209C11.1003 15.2083 11.6048 15.5241 11.875 15.9896L15.4688 15.9928C16.1882 15.9928 16.7709 15.4101 16.7709 14.6907V9.99999C16.7709 6.25976 13.7403 3.22916 10 3.22916ZM6.35419 8.43749H6.87502C7.45119 8.43749 7.91669 8.90299 7.91669 9.47916V13.125C7.91669 13.7012 7.45119 14.1667 6.87502 14.1667H6.35419C5.2051 14.1667 4.27085 13.2324 4.27085 12.0833V10.5208C4.27085 9.37174 5.2051 8.43749 6.35419 8.43749ZM13.6459 8.43749C14.7949 8.43749 15.7292 9.37174 15.7292 10.5208V12.0833C15.7292 13.2324 14.7949 14.1667 13.6459 14.1667H13.125C12.5488 14.1667 12.0834 13.7012 12.0834 13.125V9.47916C12.0834 8.90299 12.5488 8.43749 13.125 8.43749H13.6459Z" fill="#637381"/>
<path d="M10 3.22916C6.25979 3.22916 3.22919 6.25976 3.22919 9.99999V11.3021C3.22919 11.735 2.88088 12.0833 2.44794 12.0833C2.01499 12.0833 1.66669 11.735 1.66669 11.3021V9.99999C1.66669 5.39713 5.39716 1.66666 10 1.66666C14.6029 1.66666 18.3334 5.39713 18.3334 9.99999V14.6907C18.3334 16.2728 17.0508 17.5553 15.4655 17.5553L11.875 17.5521C11.6048 18.0176 11.1003 18.3333 10.5209 18.3333H9.47919C8.61656 18.3333 7.91669 17.6335 7.91669 16.7708C7.91669 15.9082 8.61656 15.2083 9.47919 15.2083H10.5209C11.1003 15.2083 11.6048 15.5241 11.875 15.9896L15.4688 15.9928C16.1882 15.9928 16.7709 15.4101 16.7709 14.6907V9.99999C16.7709 6.25976 13.7403 3.22916 10 3.22916Z" fill="#637381"/>
</svg>
