<svg width="20" height="20" viewBox="0 0 20 20" fill="none" xmlns="http://www.w3.org/2000/svg">
<path d="M10 18.3333C14.6029 18.3333 18.3334 14.6029 18.3334 9.99999C18.3334 5.39713 14.6029 1.66666 10 1.66666C5.39716 1.66666 1.66669 5.39713 1.66669 9.99999C1.66669 14.6029 5.39716 18.3333 10 18.3333ZM7.19403 7.04752C7.45119 6.3216 8.1413 5.83332 8.91278 5.83332H10.8106C11.9466 5.83332 12.8646 6.75455 12.8646 7.88736C12.8646 8.62304 12.4707 9.30338 11.8327 9.67121L10.7813 10.2734C10.7748 10.6966 10.4265 11.0417 10 11.0417C9.56708 11.0417 9.21877 10.6933 9.21877 10.2604V9.82095C9.21877 9.54101 9.36851 9.28384 9.61265 9.14387L11.0547 8.31705C11.2077 8.22916 11.3021 8.0664 11.3021 7.89061C11.3021 7.61718 11.0808 7.39908 10.8106 7.39908H8.91278C8.8021 7.39908 8.70445 7.46744 8.66864 7.5716L8.65562 7.61067C8.51239 8.01757 8.06317 8.22916 7.65953 8.08593C7.25588 7.9427 7.04104 7.49348 7.18427 7.08983L7.19729 7.05077L7.19403 7.04752ZM11.0417 13.125C11.0417 13.7012 10.5762 14.1667 10 14.1667C9.42385 14.1667 8.95835 13.7012 8.95835 13.125C8.95835 12.5488 9.42385 12.0833 10 12.0833C10.5762 12.0833 11.0417 12.5488 11.0417 13.125Z" fill="#637381"/>
</svg>
